<?xml version="1.0" encoding="UTF-8" standalone="no"?>
<!DOCTYPE svg PUBLIC "-//W3C//DTD SVG 1.1//EN" "http://www.w3.org/Graphics/SVG/1.1/DTD/svg11.dtd">
<svg width="100%" height="100%" viewBox="0 0 1000 1000" version="1.1" xmlns="http://www.w3.org/2000/svg" xmlns:xlink="http://www.w3.org/1999/xlink" xml:space="preserve" xmlns:serif="http://www.serif.com/" style="fill-rule:evenodd;clip-rule:evenodd;stroke-linecap:round;stroke-linejoin:round;stroke-miterlimit:1.5;">
    <g transform="matrix(4.273504,0,0,2.881844,-1256.410256,-1224.783862)">
        <rect x="294" y="425" width="234" height="347" style="fill:rgb(254,252,232);"/>
        <clipPath id="_clip1">
            <rect x="294" y="425" width="234" height="347"/>
        </clipPath>
        <g clip-path="url(#_clip1)">
            <g transform="matrix(0.978148,0.308313,-0.140206,0.978148,92.777589,-113.688465)">
                <g transform="matrix(1.897297,0,0,0.963889,-656.609189,112.892778)">
                    <path d="M707,426.718L707,883.282C707,906.307 700.596,925 692.708,925L536.292,925C528.404,925 522,906.307 522,883.282L522,426.718C522,403.693 528.404,385 536.292,385L692.708,385C700.596,385 707,403.693 707,426.718Z" style="fill:white;stroke:black;stroke-width:8.94px;"/>
                </g>
                <g transform="matrix(3.3696,0,0,4.9968,509.28,744.24)">
                    <g transform="matrix(1,0,0,1,-52.083333,-52.083333)">
                        <g transform="matrix(4.166667,0,0,4.166667,0,0)">
                            <path d="M2,2.5L9,2.5M12,2.5L15,2.5M16,2.5L23,2.5M2,3.5L3,3.5M8,3.5L9,3.5M11,3.5L12,3.5M14,3.5L15,3.5M16,3.5L17,3.5M22,3.5L23,3.5M2,4.5L3,4.5M4,4.5L7,4.5M8,4.5L9,4.5M10,4.5L11,4.5M12,4.5L15,4.5M16,4.5L17,4.5M18,4.5L21,4.5M22,4.5L23,4.5M2,5.5L3,5.5M4,5.5L7,5.5M8,5.5L9,5.5M10,5.5L11,5.5M12,5.5L14,5.5M16,5.5L17,5.5M18,5.5L21,5.5M22,5.5L23,5.5M2,6.5L3,6.5M4,6.5L7,6.5M8,6.5L9,6.5M10,6.5L11,6.5M13,6.5L15,6.5M16,6.5L17,6.5M18,6.5L21,6.5M22,6.5L23,6.5M2,7.5L3,7.5M8,7.5L9,7.5M10,7.5L13,7.5M14,7.5L15,7.5M16,7.5L17,7.5M22,7.5L23,7.5M2,8.5L9,8.5M10,8.5L11,8.5M12,8.5L13,8.5M14,8.5L15,8.5M16,8.5L23,8.5M10,9.5L11,9.5M13,9.5L15,9.5M2,10.5L3,10.5M4,10.5L9,10.5M12,10.5L13,10.5M14,10.5L15,10.5M16,10.5L21,10.5M3,11.5L5,11.5M10,11.5L11,11.5M14,11.5L15,11.5M17,11.5L18,11.5M20,11.5L21,11.5M2,12.5L3,12.5M4,12.5L9,12.5M10,12.5L11,12.5M12,12.5L14,12.5M15,12.5L16,12.5M18,12.5L19,12.5M20,12.5L21,12.5M4,13.5L5,13.5M7,13.5L8,13.5M11,13.5L13,13.5M17,13.5L19,13.5M20,13.5L22,13.5M2,14.5L3,14.5M5,14.5L6,14.5M8,14.5L10,14.5M11,14.5L14,14.5M15,14.5L16,14.5M18,14.5L19,14.5M20,14.5L22,14.5M10,15.5L12,15.5M13,15.5L17,15.5M19,15.5L20,15.5M21,15.5L22,15.5M2,16.5L9,16.5M12,16.5L13,16.5M14,16.5L15,16.5M16,16.5L18,16.5M22,16.5L23,16.5M2,17.5L3,17.5M8,17.5L9,17.5M10,17.5L12,17.5M13,17.5L17,17.5M19,17.5L20,17.5M2,18.5L3,18.5M4,18.5L7,18.5M8,18.5L9,18.5M10,18.5L11,18.5M14,18.5L15,18.5M17,18.5L18,18.5M20,18.5L21,18.5M2,19.5L3,19.5M4,19.5L7,19.5M8,19.5L9,19.5M10,19.5L11,19.5M12,19.5L13,19.5M14,19.5L15,19.5M17,19.5L18,19.5M20,19.5L21,19.5M2,20.5L3,20.5M4,20.5L7,20.5M8,20.5L9,20.5M10,20.5L11,20.5M12,20.5L14,20.5M15,20.5L16,20.5M18,20.5L21,20.5M2,21.5L3,21.5M8,21.5L9,21.5M11,21.5L13,21.5M17,21.5L19,21.5M20,21.5L22,21.5M2,22.5L9,22.5M10,22.5L14,22.5M15,22.5L16,22.5M18,22.5L21,22.5" style="fill-rule:nonzero;stroke:black;stroke-width:1px;stroke-linecap:butt;stroke-linejoin:bevel;stroke-miterlimit:4;"/>
                        </g>
                    </g>
                </g>
            </g>
        </g>
    </g>
</svg>
